<svg xmlns="http://www.w3.org/2000/svg" xmlns:xlink="http://www.w3.org/1999/xlink" width="500" zoomAndPan="magnify" viewBox="0 0 375 374.999991" height="500" preserveAspectRatio="xMidYMid meet" version="1.0"><rect x="-37.5" width="450" fill="#ffffff" y="-37.499999" height="449.999989" fill-opacity="1"/><rect x="-37.5" width="450" fill="#ffffff" y="-37.499999" height="449.999989" fill-opacity="1"/><rect x="-37.5" width="450" fill="#000000" y="-37.499999" height="449.999989" fill-opacity="1"/><path fill="#ffffff" d="M 360.578125 346.152344 L 346.152344 346.152344 L 346.152344 100.960938 C 346.152344 99.714844 345.996094 98.492188 345.679688 97.289062 C 345.359375 96.082031 344.894531 94.941406 344.28125 93.855469 C 343.667969 92.773438 342.925781 91.785156 342.058594 90.894531 C 341.1875 90.003906 340.21875 89.234375 339.152344 88.59375 L 194.921875 2.058594 C 193.800781 1.382812 192.613281 0.871094 191.351562 0.519531 C 190.089844 0.171875 188.808594 -0.00390625 187.5 -0.00390625 C 186.191406 -0.00390625 184.910156 0.171875 183.648438 0.519531 C 182.386719 0.871094 181.199219 1.382812 180.078125 2.058594 L 93.539062 53.980469 C 92.472656 54.621094 91.503906 55.386719 90.632812 56.277344 C 89.765625 57.167969 89.023438 58.15625 88.410156 59.242188 C 87.796875 60.324219 87.332031 61.46875 87.015625 62.671875 C 86.695312 63.875 86.539062 65.101562 86.539062 66.347656 L 86.539062 120.890625 L 36.816406 145.753906 C 35.621094 146.351562 34.527344 147.101562 33.539062 148.007812 C 32.550781 148.910156 31.703125 149.929688 31 151.070312 C 30.296875 152.210938 29.761719 153.425781 29.394531 154.710938 C 29.027344 156 28.847656 157.316406 28.847656 158.652344 L 28.847656 346.152344 L 14.421875 346.152344 C 13.476562 346.152344 12.539062 346.246094 11.609375 346.429688 C 10.679688 346.617188 9.777344 346.890625 8.902344 347.25 C 8.027344 347.613281 7.199219 348.058594 6.410156 348.585938 C 5.621094 349.109375 4.894531 349.707031 4.222656 350.378906 C 3.554688 351.046875 2.957031 351.777344 2.429688 352.5625 C 1.90625 353.351562 1.460938 354.183594 1.097656 355.058594 C 0.734375 355.933594 0.460938 356.835938 0.277344 357.761719 C 0.09375 358.691406 0 359.628906 0 360.578125 C 0 361.523438 0.09375 362.460938 0.277344 363.390625 C 0.460938 364.320312 0.734375 365.222656 1.097656 366.097656 C 1.460938 366.972656 1.90625 367.800781 2.429688 368.589844 C 2.957031 369.378906 3.554688 370.105469 4.222656 370.777344 C 4.894531 371.445312 5.621094 372.042969 6.410156 372.570312 C 7.199219 373.09375 8.027344 373.539062 8.902344 373.902344 C 9.777344 374.265625 10.679688 374.539062 11.609375 374.722656 C 12.539062 374.90625 13.476562 375 14.421875 375 L 360.578125 375 C 361.523438 375 362.460938 374.90625 363.390625 374.722656 C 364.320312 374.539062 365.222656 374.265625 366.097656 373.902344 C 366.972656 373.539062 367.800781 373.09375 368.589844 372.570312 C 369.378906 372.042969 370.105469 371.445312 370.777344 370.777344 C 371.445312 370.105469 372.042969 369.378906 372.570312 368.589844 C 373.09375 367.800781 373.539062 366.972656 373.902344 366.097656 C 374.265625 365.222656 374.539062 364.320312 374.722656 363.390625 C 374.90625 362.460938 375 361.523438 375 360.578125 C 375 359.628906 374.90625 358.691406 374.722656 357.761719 C 374.539062 356.835938 374.265625 355.933594 373.902344 355.058594 C 373.539062 354.183594 373.09375 353.351562 372.570312 352.5625 C 372.042969 351.777344 371.445312 351.046875 370.777344 350.378906 C 370.105469 349.707031 369.378906 349.109375 368.589844 348.585938 C 367.800781 348.058594 366.972656 347.613281 366.097656 347.25 C 365.222656 346.890625 364.320312 346.617188 363.390625 346.429688 C 362.460938 346.246094 361.523438 346.152344 360.578125 346.152344 Z M 201.921875 346.152344 L 173.078125 346.152344 L 173.078125 288.460938 L 201.921875 288.460938 Z M 317.308594 346.152344 L 288.460938 346.152344 L 288.460938 187.5 C 288.460938 186.554688 288.367188 185.613281 288.183594 184.6875 C 288 183.757812 287.726562 182.855469 287.363281 181.980469 C 287 181.105469 286.558594 180.273438 286.03125 179.488281 C 285.503906 178.699219 284.90625 177.972656 284.238281 177.300781 C 283.566406 176.632812 282.839844 176.035156 282.050781 175.507812 C 281.265625 174.980469 280.433594 174.539062 279.558594 174.175781 C 278.683594 173.8125 277.78125 173.539062 276.851562 173.355469 C 275.921875 173.167969 274.984375 173.078125 274.039062 173.078125 L 100.960938 173.078125 C 100.015625 173.078125 99.078125 173.167969 98.148438 173.355469 C 97.21875 173.539062 96.316406 173.8125 95.441406 174.175781 C 94.566406 174.539062 93.734375 174.980469 92.949219 175.507812 C 92.160156 176.035156 91.433594 176.632812 90.761719 177.300781 C 90.09375 177.972656 89.496094 178.699219 88.96875 179.488281 C 88.441406 180.273438 88 181.105469 87.636719 181.980469 C 87.273438 182.855469 87 183.757812 86.816406 184.6875 C 86.628906 185.613281 86.539062 186.554688 86.539062 187.5 L 86.539062 302.882812 C 86.539062 303.832031 86.628906 304.769531 86.816406 305.699219 C 87 306.628906 87.273438 307.527344 87.636719 308.402344 C 88 309.277344 88.441406 310.109375 88.96875 310.898438 C 89.496094 311.683594 90.09375 312.414062 90.761719 313.082031 C 91.433594 313.753906 92.160156 314.351562 92.949219 314.875 C 93.734375 315.402344 94.566406 315.847656 95.441406 316.210938 C 96.316406 316.570312 97.21875 316.847656 98.148438 317.03125 C 99.078125 317.214844 100.015625 317.308594 100.960938 317.308594 C 101.910156 317.308594 102.847656 317.214844 103.773438 317.03125 C 104.703125 316.847656 105.605469 316.570312 106.480469 316.210938 C 107.355469 315.847656 108.1875 315.402344 108.972656 314.875 C 109.761719 314.351562 110.492188 313.753906 111.160156 313.082031 C 111.828125 312.414062 112.429688 311.683594 112.953125 310.898438 C 113.480469 310.109375 113.925781 309.277344 114.285156 308.402344 C 114.648438 307.527344 114.921875 306.628906 115.109375 305.699219 C 115.292969 304.769531 115.382812 303.832031 115.382812 302.882812 L 115.382812 201.921875 L 259.617188 201.921875 L 259.617188 346.152344 L 230.769531 346.152344 L 230.769531 274.039062 C 230.769531 273.089844 230.675781 272.152344 230.492188 271.226562 C 230.308594 270.296875 230.035156 269.394531 229.671875 268.519531 C 229.308594 267.644531 228.863281 266.8125 228.339844 266.027344 C 227.8125 265.238281 227.214844 264.507812 226.542969 263.839844 C 225.875 263.171875 225.148438 262.570312 224.359375 262.046875 C 223.570312 261.519531 222.742188 261.074219 221.867188 260.714844 C 220.992188 260.351562 220.089844 260.078125 219.160156 259.890625 C 218.230469 259.707031 217.292969 259.617188 216.347656 259.617188 L 158.652344 259.617188 C 157.707031 259.617188 156.769531 259.707031 155.839844 259.890625 C 154.910156 260.078125 154.007812 260.351562 153.132812 260.714844 C 152.257812 261.074219 151.429688 261.519531 150.640625 262.046875 C 149.851562 262.574219 149.125 263.171875 148.457031 263.839844 C 147.785156 264.507812 147.1875 265.238281 146.660156 266.027344 C 146.136719 266.8125 145.691406 267.644531 145.328125 268.519531 C 144.964844 269.394531 144.691406 270.296875 144.507812 271.226562 C 144.324219 272.152344 144.230469 273.089844 144.230469 274.039062 L 144.230469 346.152344 L 57.691406 346.152344 L 57.691406 167.570312 L 107.128906 142.851562 C 107.3125 142.757812 107.488281 142.675781 107.664062 142.578125 L 173.078125 109.878906 L 173.078125 129.808594 C 173.078125 130.753906 173.167969 131.691406 173.355469 132.621094 C 173.539062 133.550781 173.8125 134.453125 174.175781 135.328125 C 174.539062 136.203125 174.980469 137.035156 175.507812 137.820312 C 176.035156 138.609375 176.632812 139.335938 177.300781 140.007812 C 177.972656 140.675781 178.699219 141.273438 179.488281 141.800781 C 180.273438 142.324219 181.105469 142.769531 181.980469 143.132812 C 182.855469 143.496094 183.757812 143.769531 184.6875 143.953125 C 185.613281 144.136719 186.554688 144.230469 187.5 144.230469 C 188.445312 144.230469 189.386719 144.136719 190.3125 143.953125 C 191.242188 143.769531 192.144531 143.496094 193.019531 143.132812 C 193.894531 142.769531 194.726562 142.324219 195.511719 141.800781 C 196.300781 141.273438 197.027344 140.675781 197.699219 140.007812 C 198.367188 139.335938 198.964844 138.609375 199.492188 137.820312 C 200.019531 137.035156 200.460938 136.203125 200.824219 135.328125 C 201.1875 134.453125 201.460938 133.550781 201.644531 132.621094 C 201.832031 131.691406 201.921875 130.753906 201.921875 129.808594 L 201.921875 86.539062 C 201.921875 85.925781 201.882812 85.316406 201.808594 84.710938 C 201.730469 84.101562 201.613281 83.503906 201.460938 82.910156 C 201.304688 82.316406 201.113281 81.738281 200.886719 81.167969 C 200.660156 80.601562 200.394531 80.046875 200.097656 79.515625 C 199.800781 78.980469 199.46875 78.464844 199.105469 77.972656 C 198.742188 77.480469 198.347656 77.011719 197.925781 76.570312 C 197.503906 76.128906 197.054688 75.714844 196.578125 75.328125 C 196.101562 74.941406 195.605469 74.589844 195.082031 74.269531 C 194.5625 73.945312 194.023438 73.660156 193.464844 73.40625 C 192.90625 73.152344 192.335938 72.933594 191.753906 72.753906 C 191.167969 72.574219 190.574219 72.429688 189.96875 72.328125 C 189.367188 72.222656 188.757812 72.15625 188.148438 72.128906 C 187.535156 72.101562 186.925781 72.113281 186.316406 72.164062 C 185.703125 72.210938 185.101562 72.300781 184.5 72.429688 C 183.902344 72.554688 183.316406 72.722656 182.738281 72.921875 C 182.160156 73.125 181.597656 73.363281 181.046875 73.636719 L 115.382812 106.46875 L 115.382812 74.515625 L 187.5 31.246094 L 317.308594 109.132812 Z M 317.308594 346.152344 " fill-opacity="1" fill-rule="nonzero"/></svg>