<svg xmlns="http://www.w3.org/2000/svg" xmlns:xlink="http://www.w3.org/1999/xlink" width="500" zoomAndPan="magnify" viewBox="0 0 375 374.999991" height="500" preserveAspectRatio="xMidYMid meet" version="1.0"><defs><clipPath id="a5f4295c88"><path d="M 36.632812 44.039062 L 338.132812 44.039062 L 338.132812 331.289062 L 36.632812 331.289062 Z M 36.632812 44.039062 " clip-rule="nonzero"/></clipPath></defs><rect x="-37.5" width="450" fill="#ffffff" y="-37.499999" height="449.999989" fill-opacity="1"/><rect x="-37.5" width="450" fill="#ffffff" y="-37.499999" height="449.999989" fill-opacity="1"/><rect x="-37.5" width="450" fill="#000000" y="-37.499999" height="449.999989" fill-opacity="1"/><g clip-path="url(#a5f4295c88)"><path fill="#ffffff" d="M 284.261719 247.878906 L 187.644531 182.3125 L 91.027344 247.878906 L 91.027344 288.527344 C 91.027344 295.785156 93.988281 302.5 98.765625 307.339844 C 103.542969 312.175781 110.191406 315.082031 117.386719 315.082031 L 257.902344 315.082031 C 265.15625 315.082031 271.746094 312.117188 276.523438 307.339844 C 281.363281 302.5 284.261719 295.90625 284.261719 288.527344 Z M 136.3125 95.453125 C 136.3125 81.117188 142.058594 68.476562 151.367188 59.160156 C 160.679688 49.847656 173.496094 44.101562 187.644531 44.101562 C 201.976562 44.101562 214.609375 49.847656 223.921875 59.160156 C 233.234375 68.476562 238.976562 81.179688 238.976562 95.453125 L 216.96875 95.453125 C 216.96875 87.347656 213.703125 79.910156 208.445312 74.707031 C 203.183594 69.445312 195.6875 66.117188 187.585938 66.117188 C 179.484375 66.117188 172.226562 69.382812 166.847656 74.644531 C 161.585938 79.910156 158.320312 87.410156 158.320312 95.394531 L 136.253906 95.394531 L 136.253906 95.453125 Z M 164.246094 241.46875 L 183.957031 241.46875 L 183.957031 261.003906 L 164.246094 261.003906 Z M 191.515625 241.46875 L 211.042969 241.46875 L 211.042969 261.003906 L 191.515625 261.003906 Z M 164.246094 267.960938 L 183.957031 267.960938 L 183.957031 287.679688 L 164.246094 287.679688 Z M 191.515625 267.960938 L 211.042969 267.960938 L 211.042969 287.679688 L 191.515625 287.679688 Z M 112.613281 213.824219 L 112.613281 171.121094 L 128.695312 171.121094 L 128.695312 202.9375 L 187.644531 162.957031 L 284.261719 228.523438 L 284.261719 228.34375 L 300.347656 239.410156 L 338.738281 265.664062 L 329.730469 278.96875 L 300.285156 258.949219 L 300.285156 288.527344 C 300.285156 300.320312 295.449219 311.027344 287.832031 318.648438 C 280.089844 326.390625 269.328125 331.230469 257.722656 331.230469 L 117.449219 331.230469 C 105.839844 331.230469 95.136719 326.390625 87.519531 318.648438 C 79.78125 311.027344 74.945312 300.320312 74.945312 288.527344 L 74.945312 258.949219 L 45.5 278.96875 L 36.488281 265.664062 L 74.882812 239.410156 L 90.964844 228.34375 L 90.964844 228.523438 Z M 117.449219 105.675781 L 257.960938 105.675781 C 269.570312 105.675781 280.273438 110.515625 288.074219 118.136719 C 295.691406 125.878906 300.527344 136.644531 300.527344 148.257812 L 300.527344 220.054688 L 284.382812 208.988281 L 284.382812 148.136719 C 284.382812 140.878906 281.421875 134.285156 276.644531 129.507812 C 271.808594 124.667969 265.339844 121.765625 258.023438 121.765625 L 117.449219 121.765625 C 110.3125 121.765625 103.601562 124.730469 98.828125 129.507812 C 93.988281 134.347656 91.085938 140.820312 91.085938 148.136719 L 91.085938 208.988281 L 75.003906 220.054688 L 75.003906 148.199219 C 75.003906 136.585938 79.839844 125.878906 87.582031 118.074219 C 95.078125 110.515625 105.71875 105.675781 117.449219 105.675781 Z M 117.449219 105.675781 " fill-opacity="1" fill-rule="nonzero"/></g></svg>